<svg xmlns="http://www.w3.org/2000/svg" width="425.629" height="424.588" viewBox="0 0 425.629 424.588"><g transform="translate(0 .049)"><path d="M416.736 157.661c-22.9-90-102-154.987-194.858-157.631-49.071-1.375-100.734 14.912-138.33 71.862-67.209 101.844 4.125 172.173 53.883 205.645a311.43 311.43 0 0 1 64.355 57.849c33.578 39.87 98.248 89.418 175.24 11.792 55.785-56.316 54.939-129.606 39.71-189.517z" fill="#f2f2f2"/><ellipse cx="207.284" cy="26.175" rx="207.284" ry="26.175" transform="translate(0 372.189)" fill="#3f3d56"/><ellipse cx="184.017" cy="18.349" rx="184.017" ry="18.349" transform="translate(23.267 375.097)" opacity=".1"/><path fill="#3f3d56" d="M105.651 238.142h10.787V402.33h-10.787z"/><path d="M201.785 233.857v4.283l-176.086 2.17v-4.283l.212-.159 31.088-20.411h130.72z" fill="#3f3d56"/><path d="M170.427 207.895s-38.866 3.226-25.911 12.955 25.911-6.5 25.911-6.5z" fill="#ffb9b9"/><path d="M201.785 233.964v4.177l-176.086 2.168v-4.283l.212-.159z" opacity=".1"/><path d="M228.805 154.964l.952-3.543s-12.849 23-13.907 25.17-19.459 20.517-21.627 23.742a21.781 21.781 0 0 1-5.394 5.394h-20.517s-4.336 14.066 2.168 15.123 27.021 5.394 31.3 5.394 31.3-24.853 31.3-24.853z" fill="#575a89"/><path d="M233.089 311.643l-6.451 90.74h6.451l7.562-92.908zM311.979 300.803l-6.5 90.792h6.5l7.562-92.908zM323.828 311.643l-6.451 90.74h6.451l7.562-92.908zM223.359 302.971l-6.451 90.74h6.451l7.562-92.908z" fill="#3f3d56"/><path d="M348.681 187.378l-18.348 131.826-109.089-4.336.687-12.162 1.428-23.478 84.288 4.336 14.066-96.186z" fill="#3f3d56"/><path d="M348.681 187.378l-18.348 131.773-109.089-4.336.74-12.162c22.791.9 99.729-4.019 99.729-4.019 0-17.238 15.123-84.764 21.257-111.257z" opacity=".1"/><path d="M157.473 347.283s-3.226 24.853-9.73 29.189 27.021 9.73 27.021 9.73l2.168-32.415zM266.614 358.07s5.394 6.5 6.5 10.787 17.291 6.5 17.291 6.5l11.9-12.955s-15.121-12.951-19.457-12.951-16.234 8.619-16.234 8.619z" fill="#ffb9b9"/><circle cx="25.91" cy="25.91" r="25.91" transform="translate(212.043 83.155)" fill="#ffb9b9"/><path d="M230.921 126.885s12.955 24.853 10.787 29.189 28.079-20.517 28.079-20.517S259 118.266 259 112.872s-28.079 14.013-28.079 14.013z" fill="#ffb9b9"/><path d="M242.818 254.376s-83.178-12.955-86.4 17.291-15.126 69.168-16.184 72.391 35.64 21.627 39.976 15.123 11.9-58.325 9.73-62.661-3.226-9.73 1.058-8.619 51.874 10.787 61.6 7.562 34.586-46.428 34.586-46.428z" fill="#2f2e41"/><path d="M242.818 254.376s-83.178-12.955-86.4 17.291-15.126 69.168-16.184 72.391 35.64 21.627 39.976 15.123 11.9-58.325 9.73-62.661-3.226-9.73 1.058-8.619 51.874 10.787 61.6 7.562 34.586-46.428 34.586-46.428z" opacity=".1"/><path d="M240.653 247.872l3.226 27.021s-51.874 19.459-32.415 50.763 41.034 48.6 41.034 48.6 34.583-19.459 34.583-24.853-42.144-35.64-36.751-35.64 83.178-4.336 67-47.538-76.677-18.353-76.677-18.353zM156.415 377.53s-8.619-9.73-8.619-7.562-24.853 15.123-29.189 16.181-10.787 3.226-2.168 6.5 63.719 4.336 63.719 2.168 2.168-22.685-2.168-20.517-20.518 7.566-21.575 3.23zM283.852 369.968s-11.9-3.226-12.955 0-2.168 16.181-11.9 20.517-12.955 10.787 0 11.9 48.6-23.742 48.6-28.078-4.336-17.291-6.5-16.181-7.515 10.731-17.245 11.842z" fill="#2f2e41"/><path fill="#3f3d56" d="M86.192 384.034h49.706v19.459H86.192z"/><path d="M269.835 129.05s-4.019-10.787-11.21-4.336-21.2 22.685-21.2 22.685-8.619 3.226-11.9 8.619-3.226 41.034 3.226 52.931 6.5 32.415 8.619 37.808 0 10.787 7.562 10.787-4.336-8.619 20.517 0 52.931 19.459 55.1 11.9-3.226-11.9 0-15.123 0-4.336-2.168-11.9-4.336-8.619-5.394-18.349 0-19.459-2.168-23.742-2.168-10.787-2.168-21.627-6.5-32.415-18.349-38.866-20.467-10.787-20.467-10.787z" fill="#575a89"/><path d="M212.629 80.242c6.028-5.87 12.374-11.951 20.358-14.489 10.682-3.437 22.632.159 31.833 6.61a16.216 16.216 0 0 1 5.129 5.076 18.993 18.993 0 0 1 1.851 6.4c1.216 7.72 2.221 15.546 1.639 23.372s-2.908 15.652-7.72 21.839a45.449 45.449 0 0 1-9.624-15.811 12.87 12.87 0 0 0-2.168-4.442c-1.11-1.269-3.067-1.9-4.442-1-1.9 1.216-1.692 4.548-3.7 5.605a3.222 3.222 0 0 1-2.221.212c-5.288-.9-7.139-7.4-10.629-11.528-5.076-6.081-12.215-5.711-19.195-7.456-7.99-2.063-5.98-9.624-1.111-14.388z" fill="#2f2e41"/><ellipse cx="22.209" cy="4.812" rx="22.209" ry="4.812" transform="translate(146.579 216.99)" fill="#dfe6f5"/><path d="M207.759 217.307s-35.8-9.518-38.707-1.322 30.56 15.758 30.56 15.758h14.07z" fill="#ffb9b9"/><path d="M282.795 146.345s-16.181 11.9-20.517 29.189-7.562 35.64-7.562 35.64l-49.706 6.5s-4.336 17.291 2.168 18.349 55.1 4.336 62.661 0 33.472-58.325 32.415-63.719-3.282-24.901-19.459-25.959z" fill="#575a89"/><path d="M89.153 223.177l17.556 1.428 25.012-1.639-.423-.053-23.161-2.221c-5.288-1.956-1.639-13.431-1.639-13.431l-17.767.9-1.428.053c-6.293 14.699 1.85 14.963 1.85 14.963z" fill="#d1d9ec"/><path d="M89.153 223.177l17.556 1.43 25.012-1.639-.423-.053-25.276.9-16.974-1.851c-4.812-1.269-2.062-9.624-.317-13.854l-1.428.053c-6.293 14.75 1.85 15.014 1.85 15.014z" opacity=".1"/><path d="M60.017 118.266l5.235 76.251v9.2c.159 2.327 1.269 6.345 3.6 6.345l4.283-3.7h77.573c1.322 0-3.173-1.957-3.278-3.278l5.446-2.855-5.718-55.894a4.552 4.552 0 0 0-3.12-3.913l-77.044-26.651a7.361 7.361 0 0 0-6.98.793c-1.056.9-.102 1.799.003 3.702z" fill="#4c4c56"/><path d="M63.772 195.839l.687 10.1a4.35 4.35 0 0 0 4.389 4.072h1.639l80.851-.476a2.257 2.257 0 0 0 2.274-2.274v-.211l-.687-6.821z" fill="#dfe6f5"/><ellipse cx="1.058" cy="2.168" rx="1.058" ry="2.168" transform="translate(116.915 202.026)" fill="#fff"/><path d="M58.378 118.795l6.081 87.144a4.35 4.35 0 0 0 4.389 4.072h1.639a14.584 14.584 0 0 1-2.8-3.649s-5.975-87.567-6.4-89.735a4.7 4.7 0 0 0-1.216-2.168 5.179 5.179 0 0 0-1.693 4.336z" fill="#dfe6f5"/><path d="M58.378 118.795l6.081 87.144a4.35 4.35 0 0 0 4.389 4.072h1.639a14.584 14.584 0 0 1-2.8-3.649s-5.975-87.567-6.4-89.735a4.7 4.7 0 0 0-1.216-2.168 5.179 5.179 0 0 0-1.693 4.336z" opacity=".1"/></g></svg>