<svg xmlns="http://www.w3.org/2000/svg" width="317.844" height="213.97" viewBox="0 0 317.844 213.97"><g transform="translate(0 -.006)"><circle cx="22.377" cy="22.377" r="22.377" transform="translate(105.465 29.133)" fill="#6c63ff"/><path d="M100.391 144.442l-26.285-25.9-6.518-6.423-19.456-19.17-24.118 25.747L0 144.335" fill="#f2f2f2"/><path d="M229.836 144.598H52.118l21.99-23.835 40.625-47.65 2.738-3.211 36.748-43.1 25.428 40.272.666 1.054 32.349 51.227z" fill="#f2f2f2"/><path d="M317.844 144.442l-43.9-51.795-21.519-25.39-20.8 26.078-18.971 23.794-21.7 27.205" fill="#f2f2f2"/><path d="M67.587 112.12l-11.582 7.766-13.675-5.388-18.316 4.2 24.118-25.746zM179.643 67.069l-3.88 6.817-8.7-9.114-9.532 9.114-5.388-10.358-8.7 10.358-2.487-6.628-5.8 6.628-10.358-6.628-7.326 2.643 36.748-43.1zM273.947 92.647l-10.745 13.148-8.7-10.36-13.26 10.774-9.61-12.875 20.8-26.078z" opacity=".1"/><path d="M274.079 144.944l-.58-.3c7.532-14.562 3.5-33.473-1.2-46.773a143.355 143.355 0 0 0-12.165-25.674l.552-.349a144.086 144.086 0 0 1 12.228 25.8c4.748 13.427 8.805 32.527 1.165 47.296zM275.432 95.136l4.234-23.17.641.117-4.234 23.17z" fill="#2f2e41"/><path fill="#2f2e41" d="M251.034 92.15l.478-.445 21.857 23.494-.478.445zM279.729 132.858l11.093-15.333.529.382-11.093 15.334z"/><circle cx="3.263" cy="3.263" r="3.263" transform="translate(278.358 59.296)" fill="#6c63ff"/><circle cx="3.263" cy="3.263" r="3.263" transform="translate(242.788 84.423)" fill="#3f3d56"/><circle cx="3.263" cy="3.263" r="3.263" transform="translate(257.147 87.687)" fill="#3f3d56"/><circle cx="3.263" cy="3.263" r="3.263" transform="translate(250.62 100.413)" fill="#6c63ff"/><circle cx="3.263" cy="3.263" r="3.263" transform="translate(291.411 108.572)" fill="#3f3d56"/><circle cx="3.263" cy="3.263" r="3.263" transform="translate(280.642 112.161)" fill="#3f3d56"/><circle cx="3.263" cy="3.263" r="3.263" transform="translate(288.148 122.604)" fill="#3f3d56"/><circle cx="3.263" cy="3.263" r="3.263" transform="translate(253.884 63.212)" fill="#3f3d56"/><path d="M192.823 144.291l-.58-.3c7.532-14.562 3.5-33.473-1.2-46.773a143.355 143.355 0 0 0-12.165-25.674l.552-.349a144.088 144.088 0 0 1 12.228 25.8c4.748 13.427 8.804 32.527 1.165 47.296zM194.176 94.483l4.234-23.17.641.117-4.234 23.17z" fill="#2f2e41"/><path fill="#2f2e41" d="M169.778 91.498l.478-.445 21.857 23.494-.478.445zM198.473 132.205l11.093-15.333.529.382-11.093 15.334z"/><circle cx="3.263" cy="3.263" r="3.263" transform="translate(197.102 58.643)" fill="#3f3d56"/><circle cx="3.263" cy="3.263" r="3.263" transform="translate(161.533 83.771)" fill="#3f3d56"/><circle cx="3.263" cy="3.263" r="3.263" transform="translate(175.891 87.034)" fill="#3f3d56"/><circle cx="3.263" cy="3.263" r="3.263" transform="translate(169.364 99.761)" fill="#3f3d56"/><circle cx="3.263" cy="3.263" r="3.263" transform="translate(210.156 107.919)" fill="#6c63ff"/><circle cx="3.263" cy="3.263" r="3.263" transform="translate(199.387 111.509)" fill="#3f3d56"/><circle cx="3.263" cy="3.263" r="3.263" transform="translate(206.892 121.951)" fill="#3f3d56"/><circle cx="3.263" cy="3.263" r="3.263" transform="translate(172.628 62.559)" fill="#3f3d56"/><path d="M56.491 144.291l.58-.3c-7.532-14.562-3.5-33.473 1.2-46.773a143.356 143.356 0 0 1 12.165-25.674l-.552-.349a144.085 144.085 0 0 0-12.228 25.8c-4.748 13.427-8.804 32.527-1.165 47.296zM50.264 71.427l.641-.117 4.234 23.17-.641.117z" fill="#2f2e41"/><path fill="#2f2e41" d="M57.195 114.55l21.857-23.494.478.445-21.857 23.494zM39.224 117.245l.529-.383 11.093 15.334-.529.382z"/><circle cx="3.263" cy="3.263" r="3.263" transform="translate(45.686 58.643)" fill="#3f3d56"/><circle cx="3.263" cy="3.263" r="3.263" transform="translate(81.256 83.771)" fill="#3f3d56"/><circle cx="3.263" cy="3.263" r="3.263" transform="translate(66.897 87.034)" fill="#3f3d56"/><circle cx="3.263" cy="3.263" r="3.263" transform="translate(73.424 99.761)" fill="#3f3d56"/><circle cx="3.263" cy="3.263" r="3.263" transform="translate(32.633 107.919)" fill="#3f3d56"/><circle cx="3.263" cy="3.263" r="3.263" transform="translate(43.402 111.509)" fill="#3f3d56"/><circle cx="3.263" cy="3.263" r="3.263" transform="translate(35.896 121.951)" fill="#6c63ff"/><circle cx="3.263" cy="3.263" r="3.263" transform="translate(70.161 62.559)" fill="#3f3d56"/><path fill="#2f2e41" d="M0 144.141h317.844v.653H0z"/><circle cx="3.927" cy="3.927" r="3.927" transform="translate(136.398 133.166)" fill="#2f2e41"/><path d="M138.204 140.077s.079 1.414-.864 1.571l1.335 3.22 1.649 2.67h1.414l.864-.785-.157-1.021-.471-1.806-.55-.55a8.035 8.035 0 0 1 .785-3.3c.707-1.02-4.005.001-4.005.001z" fill="#ffb8b8"/><path d="M138.204 140.077s.079 1.414-.864 1.571l1.335 3.22 1.649 2.67h1.414l.864-.785-.157-1.021-.471-1.806-.55-.55a8.035 8.035 0 0 1 .785-3.3c.707-1.02-4.005.001-4.005.001z" opacity=".1"/><circle cx="1.885" cy="1.885" r="1.885" transform="translate(139.539 131.438)" fill="#2f2e41"/><path d="M139.618 132.538a1.885 1.885 0 0 1 1.885-1.885h.074a1.885 1.885 0 1 0-.619 3.688 1.886 1.886 0 0 1-1.34-1.8z" fill="#2f2e41"/><path d="M137.733 141.727l-.785-.078a1.289 1.289 0 0 0-1.257.314c-.55.55.079 6.754.079 6.754l1.963-1.335.314-3.142zM133.884 166.074l-1.1 6.2s-.707 2.592-1.571 3.377-2.2 7.3-2.513 8.718a8.38 8.38 0 0 1-.785 2.749c-.393.55 0 2.513 0 2.513h.864l1.257-.236a25.984 25.984 0 0 1 .471-3.534c.236-.55 4.084-8.8 4.084-8.8s2.592-3.848 3.063-5.969a13.581 13.581 0 0 1 1.728-4.005zM141.817 165.76l1.021 7.147a13.464 13.464 0 0 0 .314 3.063c.314.864.55 5.969.864 7.147s1.021 3.77.785 4.084a11.2 11.2 0 0 0-.707 1.571l.785 1.728 2.121-1.492-.314-12.88s.864-10.917.314-11.231a4.422 4.422 0 0 0-5.183.863z" fill="#ffb8b8"/><path d="M135.77 158.063l-1.571 4.32s-1.178 4.555-.55 4.791 7.775 1.257 7.932.393a8.856 8.856 0 0 0 .157-1.021s6.126.236 6.2-1.178a50.814 50.814 0 0 0-.314-5.733 1.531 1.531 0 0 0-1.414-1.178c-.858-.001-8.32-1.965-10.44-.394zM128.073 188.693a.517.517 0 0 1 .707-.157 3.49 3.49 0 0 0 1.414.157l-.236 2.121s.942 3.77-.785 3.77-2.67-1.257-2.513-1.728.55-4.163.55-4.163.755-1.854.785-1.964.078 1.964.078 1.964zM144.487 188.3s-.157.864.55.785 1.885-.785 1.963-.707a3.871 3.871 0 0 1 .393 1.257 3.58 3.58 0 0 0 .942 2.278c.707.55 1.806 2.278.55 2.356s-3.534 0-3.613-.785-.079-1.649-.079-1.649a2.121 2.121 0 0 1-.942-.079c-.236-.157-1.806-1.1-1.335-2.356a4.806 4.806 0 0 1 1.8-2.066z" fill="#2f2e41"/><circle cx="3.063" cy="3.063" r="3.063" transform="translate(136.948 135.13)" fill="#ffb8b8"/><path d="M141.658 143.926s1.414 0 1.728.785a4.712 4.712 0 0 1-.314 2.435l-.716-1.751z" fill="#ffb8b8"/><path d="M136.555 141.57h.942s2.435 3.613 2.827 3.927 1.806.393 1.806.157-.707-2.278-.707-2.278l.628.471 1.021 2.513s2.749 6.911 2.513 7.618a.7.7 0 0 0 .393.943c.079.078.942 1.885.55 2.592s.393 1.571.393 1.571.393 1.728-.942 1.963-2.042-1.021-3.613-.393-3.691.707-4.163-.236a17.626 17.626 0 0 1-.864-2.2 3.9 3.9 0 0 0-.471 2.67c.393 1.178-.157-.079-.55-.079s-1.1-.078-1.1-.55-1.571-8.4-1.571-8.4l2.2-5.026s2.042-.943 1.806-2.042.08-2.671-1.098-3.221z" fill="#3f3d56"/><path d="M136.812 142.069a1.374 1.374 0 0 0-1.459-.243 3.377 3.377 0 0 0-1.939 2.257c-.707 2.278-2.2 8.325-1.885 9.817s2.906 8.168 2.906 8.168a17.522 17.522 0 0 0 .314 1.806 30.818 30.818 0 0 0 1.257-2.827l-2.044-7.775 2.749-8.4s1.119-1.849.101-2.803z" fill="#ffb8b8"/><ellipse cx="3.024" cy="1.963" rx="3.024" ry="1.963" transform="translate(137.262 133.637)" fill="#2f2e41"/><path d="M73.291 143.999s-5.261 2.833-5.463 5.261-3.237 8.5-3.237 8.5-11.938-3.44-12.14-3.642-1.012 3.642-1.012 3.642l4.249.607 7.891 2.833s1.821 2.63 4.856-1.012 10.724-11.533 10.724-11.533z" fill="#2f2e41"/><path d="M72.279 153.913s6.677 6.475 6.475 7.891-3.237 12.949-3.237 12.949l2.428 1.214 1.619-1.012 3.237-13.961s1.219-1.71-1.111-3.688-3.948-8.857-3.948-8.857z" fill="#2f2e41"/><circle cx="3.44" cy="3.44" r="3.44" transform="translate(87.758 134.186)" fill="#a0616a"/><path d="M88.87 137.12s-3.44-1.619-3.844-1.214.809 5.261.809 5.261a30.44 30.44 0 0 1 3.642-1.821c.405-.001-.607-2.226-.607-2.226z" fill="#a0616a"/><path d="M86.847 139.349s-1.012-4.047-1.416-4.047a11.045 11.045 0 0 0-6.677 3.44 29.8 29.8 0 0 1-5.868 5.058c-.809.607-1.416 1.214 0 1.821a9.554 9.554 0 0 1 3.642 3.237c.607 1.012 4.654-.2 4.654-.2s1.821-3.44 2.428-3.44 3.844-4.659 3.237-5.869z" fill="#6c63ff"/><path d="M80.777 143.797s-2.833 3.844-2.833 6.677 1.619 7.486 1.619 7.486 1.416 6.879 2.63 4.451-.809-5.665-.809-5.665l-.809-7.284 1.619-3.844z" fill="#a0616a"/><path d="M53.089 154.352s-2.256-1.65-2.458-1.043-3.237 7.486-2.226 7.891 4.047-3.642 4.249-3.642-.142-3.38.435-3.206zM79.159 173.742a21.291 21.291 0 0 0 3.642 1.619c.607 0 1.821.809.4 1.214s-7.689 1.012-7.891.4a7.862 7.862 0 0 1 0-2.226s3.849-.4 3.849-1.007zM95.187 137.563a1.7 1.7 0 0 0 .1-.78 2.475 2.475 0 0 0-.454-1.644c-.2-.219-.487-.366-.63-.628a3.93 3.93 0 0 1-.183-.564 1.574 1.574 0 0 0-1.118-.91 4.648 4.648 0 0 0-1.492-.055 6.919 6.919 0 0 0-2.095.369 2.34 2.34 0 0 0-1.446 1.467 3.457 3.457 0 0 0-.085.805l-.03 1.127a.728.728 0 0 0 .835.09c.274-.122.507-.327.785-.438a.69.69 0 0 1 .82.149 2.461 2.461 0 0 1 .143.31c.555 1.106 2.047-.071 2.823-.054.69.014 1.519 1.846 2.027.756z" fill="#2f2e41"/><path d="M84.182 177.6c5.042 0 5.854-1.878 5.888-1.962l-.375-.153c-.008.019-.872 1.89-6.28 1.7-5.25-.188-13.374-.026-14.459 0-.3-.515-1.669-2.605-3.6-2.219l.079.4c1.851-.371 3.208 2.1 3.222 2.123l.059.109h.124c.089 0 8.962-.2 14.556 0l.786.002z" fill="#2f2e41"/><rect width="1.619" height="1.619" rx=".809" transform="rotate(180 42.513 89.805)" fill="#2f2e41"/><rect width="1.619" height="1.619" rx=".809" transform="rotate(180 35.532 89.805)" fill="#2f2e41"/><path d="M86.241 138.94s-.962 4.871-2 5.774-1.28 1.778-1.968 2.049-3.115-2.562-3.115-2.764 7.083-5.059 7.083-5.059z" fill="#6c63ff"/><path fill="#2f2e41" d="M55.802 180.364h50.907v.653H55.802zM116.499 194.07h50.907v.653h-50.907zM187.965 213.323h20.885v.653h-20.885zM57.76 207.775h20.885v.653H57.76zM173.743 161.763h89.795v.653h-89.795z"/><path d="M72.266 26.234a14.829 14.829 0 0 0-24.393 5.265l27.235-1.262a14.8 14.8 0 0 0-2.842-4zM131.005 4.37a14.829 14.829 0 0 0-24.393 5.265l27.235-1.262a14.8 14.8 0 0 0-2.842-4.003zM234.452 58.867a14.829 14.829 0 0 0-24.393 5.265l27.235-1.262a14.8 14.8 0 0 0-2.842-4.003z" fill="#f2f2f2"/><path fill="#2f2e41" d="M221.577 203.207h49.276v.653h-49.276z"/><path d="M230.102 190.489a2.609 2.609 0 0 1-2.414 2.6 2.09 2.09 0 0 1-.195.008 2.611 2.611 0 0 1-2.611-2.611.275.275 0 0 1 0-.04 2.608 2.608 0 0 1 2.319-2.554 2.726 2.726 0 0 1 .289-.016 2.607 2.607 0 0 1 2.57 2.159 2.568 2.568 0 0 1 .042.454z" fill="#6c63ff"/><path d="M230.102 190.488a2.609 2.609 0 0 1-2.414 2.6 2.008 2.008 0 0 1 2.376-3.054 2.573 2.573 0 0 1 .038.454zM227.29 188.48a2.008 2.008 0 0 1-2.408 1.968 2.608 2.608 0 0 1 2.319-2.554 1.945 1.945 0 0 1 .089.586z" fill="#f2f2f2"/><path d="M252.905 186.731c0 1.622-2.424 1.4-2.937 2.937-1.8 5.383-2.954-.8-2.937-2.937a2.937 2.937 0 0 1 5.874 0z" fill="#2f2e41"/><path d="M249.138 194.88s-.035 3.7-.517 3.939-3.217.757-2.735 1.6a1.937 1.937 0 0 0 2.529.723c.843-.482 2.89-3.372 2.89-3.372zM259.374 198.132v.1a2.674 2.674 0 0 0 3.7 2.28c.351-.138.656-.159.6.22-.12.843-.086 1.977.517 1.977s1.445-1.445.963-3.011a13.414 13.414 0 0 0-1.566-3.131z" fill="#3f3d56"/><path d="M249.138 194.88s-.035 3.7-.517 3.939-3.217.757-2.735 1.6a1.937 1.937 0 0 0 2.529.723c.843-.482 2.89-3.372 2.89-3.372zM259.374 198.132v.1a2.674 2.674 0 0 0 3.7 2.28c.351-.138.656-.159.6.22-.12.843-.086 1.977.517 1.977s1.445-1.445.963-3.011a13.414 13.414 0 0 0-1.566-3.131z" opacity=".1"/><path d="M246.507 187.288a4.067 4.067 0 0 1 1.114-1.455 3.634 3.634 0 0 1 3.324-.708 3.918 3.918 0 0 1 3.131 2.77v.826a1.979 1.979 0 0 0 1.224 1.856c.613.24 10.709-.1 11.311-.7a6.69 6.69 0 0 0 1.073-1.62v.023a6.144 6.144 0 0 1-.832 3.142 2.016 2.016 0 0 0-.372 1.17c.12.843.482 3.131-.241 3.974s-.361 1.445.482 1.566 2.288-.12 2.168 1.325.12 2.047-.482 2.047-.867-.186-1.469-1.51c0 0-.458-.3-2.144.186-1.1.313-2.536.61-2.957-.241-.932-1.882-6.922-1.511-8.286.373a6.282 6.282 0 0 1-1.315 1.415 3.31 3.31 0 0 1-.779.455 1.948 1.948 0 0 1-2.2-.316c-1.2-1.325 2.015-1.545 2.015-1.545a3.881 3.881 0 0 0 .273-2.068s-2.89-.6-3.011-4.335c0 0-3.854 0-4.456-1.927l-.6-1.927 1.158-.7a4.765 4.765 0 0 0 1.867-2.071z" fill="#3f3d56"/><ellipse cx=".561" cy=".723" rx=".561" ry=".723" transform="translate(242.971 189.436)" fill="#2f2e41"/><path d="M255.515 187.919c0 1.8-2.693 1.554-3.263 3.263-2 5.981-3.282-.889-3.263-3.263a3.264 3.264 0 1 1 6.527 0z" fill="#2f2e41"/></g></svg>