<svg xmlns="http://www.w3.org/2000/svg" width="317.844" height="213.97" viewBox="0 0 317.844 213.97">
  <g id="undraw_nature_fun_n9lv" transform="translate(0 -0.006)">
    <circle id="Ellipse_10" data-name="Ellipse 10" cx="22.377" cy="22.377" r="22.377" transform="translate(105.465 29.133)" fill="#6c63ff"/>
    <path id="Tracé_59" data-name="Tracé 59" d="M100.391,336.314l-26.285-25.9-6.518-6.423-19.456-19.17L24.014,310.568,0,336.207" transform="translate(0 -191.872)" fill="#f2f2f2"/>
    <path id="Tracé_60" data-name="Tracé 60" d="M337.428,199.905H159.71L181.7,176.07l40.625-47.65,2.738-3.211,36.748-43.1,25.428,40.272.666,1.054,32.349,51.227Z" transform="translate(-107.592 -55.307)" fill="#f2f2f2"/>
    <path id="Tracé_61" data-name="Tracé 61" d="M712.063,283.275l-43.9-51.795-21.519-25.39-20.8,26.078-18.971,23.794-21.7,27.205" transform="translate(-394.219 -138.833)" fill="#f2f2f2"/>
    <path id="Tracé_62" data-name="Tracé 62" d="M117.162,303.992l-11.582,7.766L91.905,306.37l-18.316,4.2,24.118-25.746Z" transform="translate(-49.575 -191.872)" opacity="0.1"/>
    <path id="Tracé_63" data-name="Tracé 63" d="M422.145,122.376l-3.88,6.817-8.7-9.114-9.532,9.114-5.388-10.358-8.7,10.358-2.487-6.628-5.8,6.628L367.3,122.565l-7.326,2.643,36.748-43.1Z" transform="translate(-242.502 -55.307)" opacity="0.1"/>
    <path id="Tracé_64" data-name="Tracé 64" d="M752.122,231.48l-10.745,13.148-8.7-10.36-13.26,10.774-9.61-12.875,20.8-26.078Z" transform="translate(-478.175 -138.833)" opacity="0.1"/>
    <path id="Tracé_65" data-name="Tracé 65" d="M924.1,415.408l-.58-.3c7.532-14.562,3.5-33.473-1.2-46.773a143.355,143.355,0,0,0-12.165-25.674l.552-.349a144.086,144.086,0,0,1,12.228,25.8C927.683,381.539,931.74,400.639,924.1,415.408Z" transform="translate(-650.021 -270.464)" fill="#2f2e41"/>
    <rect id="Rectangle_8" data-name="Rectangle 8" width="23.554" height="0.652" transform="translate(275.432 95.136) rotate(-79.645)" fill="#2f2e41"/>
    <rect id="Rectangle_9" data-name="Rectangle 9" width="0.653" height="32.095" transform="matrix(0.732, -0.681, 0.681, 0.732, 251.034, 92.15)" fill="#2f2e41"/>
    <rect id="Rectangle_10" data-name="Rectangle 10" width="18.93" height="0.653" transform="matrix(0.586, -0.81, 0.81, 0.586, 279.729, 132.858)" fill="#2f2e41"/>
    <circle id="Ellipse_11" data-name="Ellipse 11" cx="3.263" cy="3.263" r="3.263" transform="translate(278.358 59.296)" fill="#6c63ff"/>
    <circle id="Ellipse_12" data-name="Ellipse 12" cx="3.263" cy="3.263" r="3.263" transform="translate(242.788 84.423)" fill="#3f3d56"/>
    <circle id="Ellipse_13" data-name="Ellipse 13" cx="3.263" cy="3.263" r="3.263" transform="translate(257.147 87.687)" fill="#3f3d56"/>
    <circle id="Ellipse_14" data-name="Ellipse 14" cx="3.263" cy="3.263" r="3.263" transform="translate(250.62 100.413)" fill="#6c63ff"/>
    <circle id="Ellipse_15" data-name="Ellipse 15" cx="3.263" cy="3.263" r="3.263" transform="translate(291.411 108.572)" fill="#3f3d56"/>
    <circle id="Ellipse_16" data-name="Ellipse 16" cx="3.263" cy="3.263" r="3.263" transform="translate(280.642 112.161)" fill="#3f3d56"/>
    <circle id="Ellipse_17" data-name="Ellipse 17" cx="3.263" cy="3.263" r="3.263" transform="translate(288.148 122.604)" fill="#3f3d56"/>
    <circle id="Ellipse_18" data-name="Ellipse 18" cx="3.263" cy="3.263" r="3.263" transform="translate(253.884 63.212)" fill="#3f3d56"/>
    <path id="Tracé_66" data-name="Tracé 66" d="M675.1,413.408l-.58-.3c7.532-14.562,3.5-33.473-1.2-46.773a143.355,143.355,0,0,0-12.165-25.674l.552-.349a144.088,144.088,0,0,1,12.228,25.8C678.683,379.539,682.739,398.639,675.1,413.408Z" transform="translate(-482.277 -269.117)" fill="#2f2e41"/>
    <rect id="Rectangle_11" data-name="Rectangle 11" width="23.554" height="0.652" transform="translate(194.176 94.483) rotate(-79.645)" fill="#2f2e41"/>
    <rect id="Rectangle_12" data-name="Rectangle 12" width="0.653" height="32.095" transform="matrix(0.732, -0.681, 0.681, 0.732, 169.778, 91.498)" fill="#2f2e41"/>
    <rect id="Rectangle_13" data-name="Rectangle 13" width="18.93" height="0.653" transform="matrix(0.586, -0.81, 0.81, 0.586, 198.473, 132.205)" fill="#2f2e41"/>
    <circle id="Ellipse_19" data-name="Ellipse 19" cx="3.263" cy="3.263" r="3.263" transform="translate(197.102 58.643)" fill="#3f3d56"/>
    <circle id="Ellipse_20" data-name="Ellipse 20" cx="3.263" cy="3.263" r="3.263" transform="translate(161.533 83.771)" fill="#3f3d56"/>
    <circle id="Ellipse_21" data-name="Ellipse 21" cx="3.263" cy="3.263" r="3.263" transform="translate(175.891 87.034)" fill="#3f3d56"/>
    <circle id="Ellipse_22" data-name="Ellipse 22" cx="3.263" cy="3.263" r="3.263" transform="translate(169.364 99.761)" fill="#3f3d56"/>
    <circle id="Ellipse_23" data-name="Ellipse 23" cx="3.263" cy="3.263" r="3.263" transform="translate(210.156 107.919)" fill="#6c63ff"/>
    <circle id="Ellipse_24" data-name="Ellipse 24" cx="3.263" cy="3.263" r="3.263" transform="translate(199.387 111.509)" fill="#3f3d56"/>
    <circle id="Ellipse_25" data-name="Ellipse 25" cx="3.263" cy="3.263" r="3.263" transform="translate(206.892 121.951)" fill="#3f3d56"/>
    <circle id="Ellipse_26" data-name="Ellipse 26" cx="3.263" cy="3.263" r="3.263" transform="translate(172.628 62.559)" fill="#3f3d56"/>
    <path id="Tracé_67" data-name="Tracé 67" d="M277.322,413.408l.58-.3c-7.532-14.562-3.5-33.473,1.2-46.773a143.356,143.356,0,0,1,12.165-25.674l-.552-.349a144.085,144.085,0,0,0-12.228,25.8C273.739,379.539,269.683,398.639,277.322,413.408Z" transform="translate(-220.831 -269.117)" fill="#2f2e41"/>
    <rect id="Rectangle_14" data-name="Rectangle 14" width="0.652" height="23.554" transform="translate(50.264 71.427) rotate(-10.355)" fill="#2f2e41"/>
    <rect id="Rectangle_15" data-name="Rectangle 15" width="32.095" height="0.653" transform="matrix(0.681, -0.732, 0.732, 0.681, 57.195, 114.55)" fill="#2f2e41"/>
    <rect id="Rectangle_16" data-name="Rectangle 16" width="0.653" height="18.93" transform="matrix(0.81, -0.586, 0.586, 0.81, 39.224, 117.245)" fill="#2f2e41"/>
    <circle id="Ellipse_27" data-name="Ellipse 27" cx="3.263" cy="3.263" r="3.263" transform="translate(45.686 58.643)" fill="#3f3d56"/>
    <circle id="Ellipse_28" data-name="Ellipse 28" cx="3.263" cy="3.263" r="3.263" transform="translate(81.256 83.771)" fill="#3f3d56"/>
    <circle id="Ellipse_29" data-name="Ellipse 29" cx="3.263" cy="3.263" r="3.263" transform="translate(66.897 87.034)" fill="#3f3d56"/>
    <circle id="Ellipse_30" data-name="Ellipse 30" cx="3.263" cy="3.263" r="3.263" transform="translate(73.424 99.761)" fill="#3f3d56"/>
    <circle id="Ellipse_31" data-name="Ellipse 31" cx="3.263" cy="3.263" r="3.263" transform="translate(32.633 107.919)" fill="#3f3d56"/>
    <circle id="Ellipse_32" data-name="Ellipse 32" cx="3.263" cy="3.263" r="3.263" transform="translate(43.402 111.509)" fill="#3f3d56"/>
    <circle id="Ellipse_33" data-name="Ellipse 33" cx="3.263" cy="3.263" r="3.263" transform="translate(35.896 121.951)" fill="#6c63ff"/>
    <circle id="Ellipse_34" data-name="Ellipse 34" cx="3.263" cy="3.263" r="3.263" transform="translate(70.161 62.559)" fill="#3f3d56"/>
    <rect id="Rectangle_17" data-name="Rectangle 17" width="317.844" height="0.653" transform="translate(0 144.141)" fill="#2f2e41"/>
    <circle id="Ellipse_35" data-name="Ellipse 35" cx="3.927" cy="3.927" r="3.927" transform="translate(136.398 133.166)" fill="#2f2e41"/>
    <path id="Tracé_68" data-name="Tracé 68" d="M534.729,550.457s.079,1.414-.864,1.571l1.335,3.22,1.649,2.67h1.414l.864-.785-.157-1.021-.471-1.806-.55-.55a8.035,8.035,0,0,1,.785-3.3C539.441,549.436,534.729,550.457,534.729,550.457Z" transform="translate(-396.525 -410.38)" fill="#ffb8b8"/>
    <path id="Tracé_69" data-name="Tracé 69" d="M534.729,550.457s.079,1.414-.864,1.571l1.335,3.22,1.649,2.67h1.414l.864-.785-.157-1.021-.471-1.806-.55-.55a8.035,8.035,0,0,1,.785-3.3C539.441,549.436,534.729,550.457,534.729,550.457Z" transform="translate(-396.525 -410.38)" opacity="0.1"/>
    <circle id="Ellipse_36" data-name="Ellipse 36" cx="1.885" cy="1.885" r="1.885" transform="translate(139.539 131.438)" fill="#2f2e41"/>
    <path id="Tracé_70" data-name="Tracé 70" d="M539.871,524.235a1.885,1.885,0,0,1,1.885-1.885l.074,0a1.885,1.885,0,1,0-.619,3.688,1.886,1.886,0,0,1-1.34-1.8Z" transform="translate(-400.253 -391.697)" fill="#2f2e41"/>
    <path id="Tracé_71" data-name="Tracé 71" d="M530.387,556.181l-.785-.078a1.289,1.289,0,0,0-1.257.314c-.55.55.079,6.754.079,6.754l1.963-1.335.314-3.142Z" transform="translate(-392.654 -414.454)" fill="#ffb8b8"/>
    <path id="Tracé_72" data-name="Tracé 72" d="M510.592,631.057l-1.1,6.2s-.707,2.592-1.571,3.377-2.2,7.3-2.513,8.718a8.38,8.38,0,0,1-.785,2.749c-.393.55,0,2.513,0,2.513h.864l1.257-.236a25.984,25.984,0,0,1,.471-3.534c.236-.55,4.084-8.8,4.084-8.8s2.592-3.848,3.063-5.969a13.581,13.581,0,0,1,1.728-4.005Z" transform="translate(-376.708 -464.983)" fill="#ffb8b8"/>
    <path id="Tracé_73" data-name="Tracé 73" d="M547.583,627.317l1.021,7.147a13.464,13.464,0,0,0,.314,3.063c.314.864.55,5.969.864,7.147s1.021,3.77.785,4.084a11.2,11.2,0,0,0-.707,1.571l.785,1.728,2.121-1.492-.314-12.88s.864-10.917.314-11.231A4.422,4.422,0,0,0,547.583,627.317Z" transform="translate(-405.766 -461.557)" fill="#ffb8b8"/>
    <path id="Tracé_74" data-name="Tracé 74" d="M524.293,605.251l-1.571,4.32s-1.178,4.555-.55,4.791,7.775,1.257,7.932.393a8.856,8.856,0,0,0,.157-1.021s6.126.236,6.2-1.178a50.814,50.814,0,0,0-.314-5.733,1.531,1.531,0,0,0-1.414-1.178C533.875,605.644,526.413,603.68,524.293,605.251Z" transform="translate(-388.523 -447.188)" fill="#2f2e41"/>
    <path id="Tracé_75" data-name="Tracé 75" d="M502.512,696.309a.517.517,0,0,1,.707-.157,3.49,3.49,0,0,0,1.414.157l-.236,2.121s.942,3.77-.785,3.77-2.67-1.257-2.513-1.728.55-4.163.55-4.163.755-1.854.785-1.964S502.512,696.309,502.512,696.309Z" transform="translate(-374.439 -507.616)" fill="#2f2e41"/>
    <path id="Tracé_76" data-name="Tracé 76" d="M552.342,697.172s-.157.864.55.785,1.885-.785,1.963-.707a3.871,3.871,0,0,1,.393,1.257,3.58,3.58,0,0,0,.942,2.278c.707.55,1.806,2.278.55,2.356s-3.534,0-3.613-.785-.079-1.649-.079-1.649a2.121,2.121,0,0,1-.942-.079c-.236-.157-1.806-1.1-1.335-2.356a4.806,4.806,0,0,1,1.8-2.066Z" transform="translate(-407.855 -508.872)" fill="#2f2e41"/>
    <circle id="Ellipse_37" data-name="Ellipse 37" cx="3.063" cy="3.063" r="3.063" transform="translate(136.948 135.13)" fill="#ffb8b8"/>
    <path id="Tracé_77" data-name="Tracé 77" d="M547.1,563.187s1.414,0,1.728.785a4.712,4.712,0,0,1-.314,2.435l-.716-1.751Z" transform="translate(-405.442 -419.261)" fill="#ffb8b8"/>
    <path id="Tracé_78" data-name="Tracé 78" d="M525.459,555.967h.942s2.435,3.613,2.827,3.927,1.806.393,1.806.157-.707-2.278-.707-2.278l.628.471,1.021,2.513s2.749,6.911,2.513,7.618a.7.7,0,0,0,.393.943c.079.078.942,1.885.55,2.592s.393,1.571.393,1.571.393,1.728-.942,1.963-2.042-1.021-3.613-.393-3.691.707-4.163-.236a17.626,17.626,0,0,1-.864-2.2,3.9,3.9,0,0,0-.471,2.67c.393,1.178-.157-.079-.55-.079s-1.1-.078-1.1-.55-1.571-8.4-1.571-8.4l2.2-5.026s2.042-.943,1.806-2.042S526.637,556.517,525.459,555.967Z" transform="translate(-388.904 -414.397)" fill="#3f3d56"/>
    <path id="Tracé_79" data-name="Tracé 79" d="M521.25,556.767a1.374,1.374,0,0,0-1.459-.243,3.377,3.377,0,0,0-1.939,2.257c-.707,2.278-2.2,8.325-1.885,9.817s2.906,8.168,2.906,8.168a17.522,17.522,0,0,0,.314,1.806,30.818,30.818,0,0,0,1.257-2.827L518.4,567.97l2.749-8.4S522.268,557.721,521.25,556.767Z" transform="translate(-384.438 -414.698)" fill="#ffb8b8"/>
    <ellipse id="Ellipse_38" data-name="Ellipse 38" cx="3.024" cy="1.963" rx="3.024" ry="1.963" transform="translate(137.262 133.637)" fill="#2f2e41"/>
    <path id="Tracé_80" data-name="Tracé 80" d="M292.482,563.41s-5.261,2.833-5.463,5.261-3.237,8.5-3.237,8.5-11.938-3.44-12.14-3.642-1.012,3.642-1.012,3.642l4.249.607,7.891,2.833s1.821,2.63,4.856-1.012,10.724-11.533,10.724-11.533Z" transform="translate(-219.191 -419.411)" fill="#2f2e41"/>
    <path id="Tracé_81" data-name="Tracé 81" d="M334.493,582.513s6.677,6.475,6.475,7.891-3.237,12.949-3.237,12.949l2.428,1.214,1.619-1.012,3.237-13.961s1.219-1.71-1.111-3.688-3.948-8.857-3.948-8.857Z" transform="translate(-262.214 -428.6)" fill="#2f2e41"/>
    <circle id="Ellipse_39" data-name="Ellipse 39" cx="3.44" cy="3.44" r="3.44" transform="translate(87.758 134.186)" fill="#a0616a"/>
    <path id="Tracé_82" data-name="Tracé 82" d="M377.228,539.689s-3.44-1.619-3.844-1.214.809,5.261.809,5.261a30.44,30.44,0,0,1,3.642-1.821C378.24,541.914,377.228,539.689,377.228,539.689Z" transform="translate(-288.358 -402.569)" fill="#a0616a"/>
    <path id="Tracé_83" data-name="Tracé 83" d="M348.56,540.8s-1.012-4.047-1.416-4.047a11.045,11.045,0,0,0-6.677,3.44,29.8,29.8,0,0,1-5.868,5.058c-.809.607-1.416,1.214,0,1.821a9.554,9.554,0,0,1,3.642,3.237c.607,1.012,4.654-.2,4.654-.2s1.821-3.44,2.428-3.44S349.167,542.01,348.56,540.8Z" transform="translate(-261.713 -401.451)" fill="#6c63ff"/>
    <path id="Tracé_84" data-name="Tracé 84" d="M354.686,562.79s-2.833,3.844-2.833,6.677,1.619,7.486,1.619,7.486,1.416,6.879,2.63,4.451-.809-5.665-.809-5.665l-.809-7.284,1.619-3.844Z" transform="translate(-273.909 -418.993)" fill="#a0616a"/>
    <path id="Tracé_85" data-name="Tracé 85" d="M265.589,592.7s-2.256-1.65-2.458-1.043-3.237,7.486-2.226,7.891,4.047-3.642,4.249-3.642S265.012,592.526,265.589,592.7Z" transform="translate(-212.5 -438.348)" fill="#2f2e41"/>
    <path id="Tracé_86" data-name="Tracé 86" d="M347.452,654.554a21.291,21.291,0,0,0,3.642,1.619c.607,0,1.821.809.4,1.214s-7.689,1.012-7.891.4a7.862,7.862,0,0,1,0-2.226S347.452,655.161,347.452,654.554Z" transform="translate(-268.293 -480.812)" fill="#2f2e41"/>
    <path id="Tracé_87" data-name="Tracé 87" d="M389.342,534.159a1.7,1.7,0,0,0,.1-.78,2.475,2.475,0,0,0-.454-1.644c-.2-.219-.487-.366-.63-.628a3.93,3.93,0,0,1-.183-.564,1.574,1.574,0,0,0-1.118-.91,4.648,4.648,0,0,0-1.492-.055,6.919,6.919,0,0,0-2.095.369,2.34,2.34,0,0,0-1.446,1.467,3.457,3.457,0,0,0-.085.805l-.03,1.127a.728.728,0,0,0,.835.09c.274-.122.507-.327.785-.438a.69.69,0,0,1,.82.149,2.461,2.461,0,0,1,.143.31c.555,1.106,2.047-.071,2.823-.054C388.005,533.417,388.834,535.249,389.342,534.159Z" transform="translate(-294.155 -396.596)" fill="#2f2e41"/>
    <path id="Tracé_88" data-name="Tracé 88" d="M332.112,660.829c5.042,0,5.854-1.878,5.888-1.962l-.375-.153c-.008.019-.872,1.89-6.28,1.7-5.25-.188-13.374-.026-14.459,0-.3-.515-1.669-2.605-3.6-2.219l.079.4c1.851-.371,3.208,2.1,3.222,2.123l.059.109.124,0c.089,0,8.962-.2,14.556,0Q331.737,660.829,332.112,660.829Z" transform="translate(-247.93 -483.229)" fill="#2f2e41"/>
    <rect id="Rectangle_18" data-name="Rectangle 18" width="1.619" height="1.619" rx="0.809" transform="translate(85.026 179.609) rotate(180)" fill="#2f2e41"/>
    <rect id="Rectangle_19" data-name="Rectangle 19" width="1.619" height="1.619" rx="0.809" transform="translate(71.065 179.609) rotate(180)" fill="#2f2e41"/>
    <path id="Tracé_89" data-name="Tracé 89" d="M362.656,547.909s-.962,4.871-2,5.774-1.28,1.778-1.968,2.049-3.115-2.562-3.115-2.764S362.656,547.909,362.656,547.909Z" transform="translate(-276.415 -408.969)" fill="#6c63ff"/>
    <rect id="Rectangle_20" data-name="Rectangle 20" width="50.907" height="0.653" transform="translate(55.802 180.364)" fill="#2f2e41"/>
    <rect id="Rectangle_21" data-name="Rectangle 21" width="50.907" height="0.653" transform="translate(116.499 194.07)" fill="#2f2e41"/>
    <rect id="Rectangle_22" data-name="Rectangle 22" width="20.885" height="0.653" transform="translate(187.965 213.323)" fill="#2f2e41"/>
    <rect id="Rectangle_23" data-name="Rectangle 23" width="20.885" height="0.653" transform="translate(57.76 207.775)" fill="#2f2e41"/>
    <rect id="Rectangle_24" data-name="Rectangle 24" width="89.795" height="0.653" transform="translate(173.743 161.763)" fill="#2f2e41"/>
    <path id="Tracé_90" data-name="Tracé 90" d="M284.095,193.523a14.829,14.829,0,0,0-24.393,5.265l27.235-1.262a14.8,14.8,0,0,0-2.842-4Z" transform="translate(-211.829 -167.289)" fill="#f2f2f2"/>
    <path id="Tracé_91" data-name="Tracé 91" d="M464.095,126.523a14.829,14.829,0,0,0-24.393,5.265l27.235-1.262A14.8,14.8,0,0,0,464.095,126.523Z" transform="translate(-333.09 -122.153)" fill="#f2f2f2"/>
    <path id="Tracé_92" data-name="Tracé 92" d="M781.095,293.523a14.829,14.829,0,0,0-24.393,5.265l27.235-1.262A14.8,14.8,0,0,0,781.095,293.523Z" transform="translate(-546.643 -234.656)" fill="#f2f2f2"/>
    <rect id="Rectangle_25" data-name="Rectangle 25" width="49.276" height="0.653" transform="translate(221.577 203.207)" fill="#2f2e41"/>
    <path id="Tracé_93" data-name="Tracé 93" d="M807.344,700.483a2.609,2.609,0,0,1-2.414,2.6h0c-.064.006-.129.008-.195.008a2.611,2.611,0,0,1-2.611-2.611.275.275,0,0,1,0-.04,2.608,2.608,0,0,1,2.319-2.554,2.726,2.726,0,0,1,.289-.016,2.607,2.607,0,0,1,2.57,2.159v0A2.568,2.568,0,0,1,807.344,700.483Z" transform="translate(-577.242 -509.994)" fill="#6c63ff"/>
    <path id="Tracé_94" data-name="Tracé 94" d="M812.319,704.628a2.609,2.609,0,0,1-2.414,2.6h0a2.008,2.008,0,0,1,2.376-3.054v0A2.573,2.573,0,0,1,812.319,704.628Z" transform="translate(-582.217 -514.14)" fill="#f2f2f2"/>
    <path id="Tracé_95" data-name="Tracé 95" d="M804.537,698.507a2.008,2.008,0,0,1-2.408,1.968,2.608,2.608,0,0,1,2.319-2.554A1.945,1.945,0,0,1,804.537,698.507Z" transform="translate(-577.247 -510.027)" fill="#f2f2f2"/>
    <path id="Tracé_96" data-name="Tracé 96" d="M875.874,688.3c0,1.622-2.424,1.4-2.937,2.937-1.8,5.383-2.954-.8-2.937-2.937a2.937,2.937,0,0,1,5.874,0Z" transform="translate(-622.969 -501.569)" fill="#2f2e41"/>
    <path id="Tracé_97" data-name="Tracé 97" d="M869.628,719.331s-.035,3.7-.517,3.939-3.217.757-2.735,1.6a1.937,1.937,0,0,0,2.529.723c.843-.482,2.89-3.372,2.89-3.372Z" transform="translate(-620.49 -524.451)" fill="#3f3d56"/>
    <path id="Tracé_98" data-name="Tracé 98" d="M907.825,726.063s0,.035,0,.1a2.674,2.674,0,0,0,3.7,2.28c.351-.138.656-.159.6.22-.12.843-.086,1.977.517,1.977s1.445-1.445.963-3.011a13.414,13.414,0,0,0-1.566-3.131Z" transform="translate(-648.451 -527.931)" fill="#3f3d56"/>
    <path id="Tracé_99" data-name="Tracé 99" d="M869.628,719.331s-.035,3.7-.517,3.939-3.217.757-2.735,1.6a1.937,1.937,0,0,0,2.529.723c.843-.482,2.89-3.372,2.89-3.372Z" transform="translate(-620.49 -524.451)" opacity="0.1"/>
    <path id="Tracé_100" data-name="Tracé 100" d="M907.825,726.063s0,.035,0,.1a2.674,2.674,0,0,0,3.7,2.28c.351-.138.656-.159.6.22-.12.843-.086,1.977.517,1.977s1.445-1.445.963-3.011a13.414,13.414,0,0,0-1.566-3.131Z" transform="translate(-648.451 -527.931)" opacity="0.1"/>
    <path id="Tracé_101" data-name="Tracé 101" d="M862.141,691.316a4.067,4.067,0,0,1,1.114-1.455,3.634,3.634,0,0,1,3.324-.708,3.918,3.918,0,0,1,3.131,2.77v.826a1.979,1.979,0,0,0,1.224,1.856c.613.24,10.709-.1,11.311-.7a6.69,6.69,0,0,0,1.073-1.62v.023a6.144,6.144,0,0,1-.832,3.142,2.016,2.016,0,0,0-.372,1.17c.12.843.482,3.131-.241,3.974s-.361,1.445.482,1.566,2.288-.12,2.168,1.325.12,2.047-.482,2.047-.867-.186-1.469-1.51c0,0-.458-.3-2.144.186-1.1.313-2.536.61-2.957-.241-.932-1.882-6.922-1.511-8.286.373a6.282,6.282,0,0,1-1.315,1.415,3.31,3.31,0,0,1-.779.455,1.948,1.948,0,0,1-2.2-.316c-1.2-1.325,2.015-1.545,2.015-1.545a3.881,3.881,0,0,0,.273-2.068s-2.89-.6-3.011-4.335c0,0-3.854,0-4.456-1.927l-.6-1.927,1.158-.7a4.765,4.765,0,0,0,1.867-2.071Z" transform="translate(-615.634 -504.028)" fill="#3f3d56"/>
    <ellipse id="Ellipse_40" data-name="Ellipse 40" cx="0.561" cy="0.723" rx="0.561" ry="0.723" transform="translate(242.971 189.436)" fill="#2f2e41"/>
    <path id="Tracé_102" data-name="Tracé 102" d="M882.526,691.263c0,1.8-2.693,1.554-3.263,3.263-2,5.981-3.282-.889-3.263-3.263a3.263,3.263,0,1,1,6.527,0Z" transform="translate(-627.011 -503.344)" fill="#2f2e41"/>
  </g>
</svg>
