<svg xmlns="http://www.w3.org/2000/svg" width="425.629" height="424.588" viewBox="0 0 425.629 424.588">
  <g id="undraw_speech_to_text_9uir" transform="translate(0 0.049)">
    <path id="Tracé_30" data-name="Tracé 30" d="M466.75,157.661c-22.9-90-102-154.987-194.858-157.631-49.071-1.375-100.734,14.912-138.33,71.862-67.209,101.844,4.125,172.173,53.883,205.645A311.43,311.43,0,0,1,251.8,335.386c33.578,39.87,98.248,89.418,175.24,11.792C482.825,290.862,481.979,217.572,466.75,157.661Z" transform="translate(-50.014 0)" fill="#f2f2f2"/>
    <ellipse id="Ellipse_5" data-name="Ellipse 5" cx="207.284" cy="26.175" rx="207.284" ry="26.175" transform="translate(0 372.189)" fill="#3f3d56"/>
    <ellipse id="Ellipse_6" data-name="Ellipse 6" cx="184.017" cy="18.349" rx="184.017" ry="18.349" transform="translate(23.267 375.097)" opacity="0.1"/>
    <rect id="Rectangle_3" data-name="Rectangle 3" width="10.787" height="164.188" transform="translate(105.651 238.142)" fill="#3f3d56"/>
    <path id="Tracé_31" data-name="Tracé 31" d="M224.686,425.9v4.283L48.6,432.353V428.07l.212-.159L79.9,407.5H210.62Z" transform="translate(-22.901 -192.043)" fill="#3f3d56"/>
    <path id="Tracé_32" data-name="Tracé 32" d="M296.854,393.2s-38.866,3.226-25.911,12.955,25.911-6.5,25.911-6.5Z" transform="translate(-126.427 -185.305)" fill="#ffb9b9"/>
    <path id="Tracé_33" data-name="Tracé 33" d="M224.686,442.5v4.177L48.6,448.845v-4.283l.212-.159Z" transform="translate(-22.901 -208.536)" opacity="0.1"/>
    <path id="Tracé_34" data-name="Tracé 34" d="M377.531,289.943l.952-3.543s-12.849,23-13.907,25.17-19.459,20.517-21.627,23.742a21.781,21.781,0,0,1-5.394,5.394H317.038s-4.336,14.066,2.168,15.123,27.021,5.394,31.3,5.394,31.3-24.853,31.3-24.853Z" transform="translate(-148.726 -134.979)" fill="#575a89"/>
    <path id="Tracé_35" data-name="Tracé 35" d="M435.051,587.468l-6.451,90.74h6.451l7.562-92.908Z" transform="translate(-201.962 -275.825)" fill="#3f3d56"/>
    <path id="Tracé_36" data-name="Tracé 36" d="M584.2,567.015l-6.5,90.792h6.5l7.562-92.908Z" transform="translate(-272.221 -266.212)" fill="#3f3d56"/>
    <path id="Tracé_37" data-name="Tracé 37" d="M606.651,587.468l-6.451,90.74h6.451l7.562-92.908Z" transform="translate(-282.823 -275.825)" fill="#3f3d56"/>
    <path id="Tracé_38" data-name="Tracé 38" d="M416.651,571.068l-6.451,90.74h6.451l7.562-92.908Z" transform="translate(-193.292 -268.097)" fill="#3f3d56"/>
    <path id="Tracé_39" data-name="Tracé 39" d="M545.837,354.4,527.489,486.226,418.4,481.89l.687-12.162,1.428-23.478,84.288,4.336L518.869,354.4Z" transform="translate(-197.156 -167.022)" fill="#3f3d56"/>
    <path id="Tracé_40" data-name="Tracé 40" d="M545.837,354.4,527.489,486.173,418.4,481.837l.74-12.162c22.791.9,99.729-4.019,99.729-4.019,0-17.238,15.123-84.764,21.257-111.257Z" transform="translate(-197.156 -167.022)" opacity="0.1"/>
    <path id="Tracé_41" data-name="Tracé 41" d="M288.384,656.8s-3.226,24.853-9.73,29.189,27.021,9.73,27.021,9.73l2.168-32.415Z" transform="translate(-130.911 -309.517)" fill="#ffb9b9"/>
    <path id="Tracé_42" data-name="Tracé 42" d="M504.2,669.519s5.394,6.5,6.5,10.787,17.291,6.5,17.291,6.5l11.9-12.955S524.77,660.9,520.434,660.9,504.2,669.519,504.2,669.519Z" transform="translate(-237.586 -311.449)" fill="#ffb9b9"/>
    <circle id="Ellipse_7" data-name="Ellipse 7" cx="25.91" cy="25.91" r="25.91" transform="translate(212.043 83.155)" fill="#ffb9b9"/>
    <path id="Tracé_43" data-name="Tracé 43" d="M436.7,226.669s12.955,24.853,10.787,29.189,28.079-20.517,28.079-20.517-10.787-17.291-10.787-22.685S436.7,226.669,436.7,226.669Z" transform="translate(-205.779 -99.784)" fill="#ffb9b9"/>
    <path id="Tracé_44" data-name="Tracé 44" d="M367.764,476.341s-83.178-12.955-86.4,17.291S266.238,562.8,265.18,566.023s35.64,21.627,39.976,15.123,11.9-58.325,9.73-62.661-3.226-9.73,1.058-8.619,51.874,10.787,61.6,7.562S412.13,471,412.13,471Z" transform="translate(-124.946 -221.965)" fill="#2f2e41"/>
    <path id="Tracé_45" data-name="Tracé 45" d="M367.764,476.341s-83.178-12.955-86.4,17.291S266.238,562.8,265.18,566.023s35.64,21.627,39.976,15.123,11.9-58.325,9.73-62.661-3.226-9.73,1.058-8.619,51.874,10.787,61.6,7.562S412.13,471,412.13,471Z" transform="translate(-124.946 -221.965)" opacity="0.1"/>
    <path id="Tracé_46" data-name="Tracé 46" d="M425.2,462.461l3.226,27.021s-51.874,19.459-32.415,50.763,41.034,48.6,41.034,48.6,34.583-19.459,34.583-24.853-42.144-35.64-36.751-35.64,83.178-4.336,67-47.538S425.2,462.461,425.2,462.461Z" transform="translate(-184.547 -214.589)" fill="#2f2e41"/>
    <path id="Tracé_47" data-name="Tracé 47" d="M256.388,706.981s-8.619-9.73-8.619-7.562S222.916,714.542,218.58,715.6s-10.787,3.226-2.168,6.5,63.719,4.336,63.719,2.168,2.168-22.685-2.168-20.517S257.445,711.317,256.388,706.981Z" transform="translate(-99.973 -329.451)" fill="#2f2e41"/>
    <path id="Tracé_48" data-name="Tracé 48" d="M507.034,689.085s-11.9-3.226-12.955,0-2.168,16.181-11.9,20.517-12.955,10.787,0,11.9,48.6-23.742,48.6-28.078-4.336-17.291-6.5-16.181S516.764,687.974,507.034,689.085Z" transform="translate(-223.182 -319.117)" fill="#2f2e41"/>
    <rect id="Rectangle_4" data-name="Rectangle 4" width="49.706" height="19.459" transform="translate(86.192 384.034)" fill="#3f3d56"/>
    <path id="Tracé_49" data-name="Tracé 49" d="M468.9,238.4s-4.019-10.787-11.21-4.336-21.2,22.685-21.2,22.685-8.619,3.226-11.9,8.619-3.226,41.034,3.226,52.931,6.5,32.415,8.619,37.808,0,10.787,7.562,10.787-4.336-8.619,20.517,0,52.931,19.459,55.1,11.9-3.226-11.9,0-15.123,0-4.336-2.168-11.9-4.336-8.619-5.394-18.349,0-19.459-2.168-23.742-2.168-10.787-2.168-21.627-6.5-32.415-18.349-38.866S468.9,238.4,468.9,238.4Z" transform="translate(-199.065 -109.35)" fill="#575a89"/>
    <path id="Tracé_50" data-name="Tracé 50" d="M398.3,137.7c6.028-5.87,12.374-11.951,20.358-14.489,10.682-3.437,22.632.159,31.833,6.61a16.216,16.216,0,0,1,5.129,5.076,18.993,18.993,0,0,1,1.851,6.4c1.216,7.72,2.221,15.546,1.639,23.372s-2.908,15.652-7.72,21.839a45.449,45.449,0,0,1-9.624-15.811,12.87,12.87,0,0,0-2.168-4.442c-1.11-1.269-3.067-1.9-4.442-1-1.9,1.216-1.692,4.548-3.7,5.605a3.222,3.222,0,0,1-2.221.212c-5.288-.9-7.139-7.4-10.629-11.528-5.076-6.081-12.215-5.711-19.195-7.456C391.421,150.025,393.431,142.464,398.3,137.7Z" transform="translate(-185.671 -57.458)" fill="#2f2e41"/>
    <ellipse id="Ellipse_8" data-name="Ellipse 8" cx="22.209" cy="4.812" rx="22.209" ry="4.812" transform="translate(146.579 216.99)" fill="#dfe6f5"/>
    <path id="Tracé_51" data-name="Tracé 51" d="M358.247,406.855s-35.8-9.518-38.707-1.322S350.1,421.291,350.1,421.291H364.17Z" transform="translate(-150.488 -189.548)" fill="#ffb9b9"/>
    <path id="Tracé_52" data-name="Tracé 52" d="M464.223,276.8s-16.181,11.9-20.517,29.189-7.562,35.64-7.562,35.64l-49.706,6.5s-4.336,17.291,2.168,18.349,55.1,4.336,62.661,0,33.472-58.325,32.415-63.719S480.4,277.858,464.223,276.8Z" transform="translate(-181.428 -130.455)" fill="#575a89"/>
    <path id="Tracé_53" data-name="Tracé 53" d="M164.824,407.916l17.556,1.428,25.012-1.639-.423-.053-23.161-2.221C178.52,403.475,182.169,392,182.169,392l-17.767.9-1.428.053C156.681,407.652,164.824,407.916,164.824,407.916Z" transform="translate(-75.671 -184.739)" fill="#d1d9ec"/>
    <path id="Tracé_54" data-name="Tracé 54" d="M164.824,408.67,182.38,410.1l25.012-1.639-.423-.053-25.276.9-16.974-1.851c-4.812-1.269-2.062-9.624-.317-13.854l-1.428.053C156.681,408.406,164.824,408.67,164.824,408.67Z" transform="translate(-75.671 -185.493)" opacity="0.1"/>
    <path id="Tracé_55" data-name="Tracé 55" d="M113.059,219.243l5.235,76.251v9.2c.159,2.327,1.269,6.345,3.6,6.345l4.283-3.7h77.573c1.322,0-3.173-1.957-3.278-3.278l5.446-2.855L200.2,245.312a4.552,4.552,0,0,0-3.12-3.913l-77.044-26.651a7.361,7.361,0,0,0-6.98.793C112,216.441,112.954,217.34,113.059,219.243Z" transform="translate(-53.042 -100.977)" fill="#4c4c56"/>
    <path id="Tracé_56" data-name="Tracé 56" d="M120.6,370.4l.687,10.1a4.35,4.35,0,0,0,4.389,4.072h1.639l80.851-.476a2.257,2.257,0,0,0,2.274-2.274v-.211l-.687-6.821Z" transform="translate(-56.828 -174.561)" fill="#dfe6f5"/>
    <ellipse id="Ellipse_9" data-name="Ellipse 9" cx="1.058" cy="2.168" rx="1.058" ry="2.168" transform="translate(116.915 202.026)" fill="#fff"/>
    <path id="Tracé_57" data-name="Tracé 57" d="M110.379,220.836l6.081,87.144a4.35,4.35,0,0,0,4.389,4.072h1.639a14.584,14.584,0,0,1-2.8-3.649s-5.975-87.567-6.4-89.735a4.7,4.7,0,0,0-1.216-2.168A5.179,5.179,0,0,0,110.379,220.836Z" transform="translate(-52.001 -102.041)" fill="#dfe6f5"/>
    <path id="Tracé_58" data-name="Tracé 58" d="M110.379,220.836l6.081,87.144a4.35,4.35,0,0,0,4.389,4.072h1.639a14.584,14.584,0,0,1-2.8-3.649s-5.975-87.567-6.4-89.735a4.7,4.7,0,0,0-1.216-2.168A5.179,5.179,0,0,0,110.379,220.836Z" transform="translate(-52.001 -102.041)" opacity="0.1"/>
  </g>
</svg>
